<svg width="164" height="120" viewBox="0 0 164 120" fill="none" xmlns="http://www.w3.org/2000/svg">
<path d="M158.099 70.8502C160.829 69.3151 162.705 66.2438 162.705 63.0022C162.705 57.8841 158.611 53.7908 153.494 53.7908H123.469C123.639 53.1089 123.98 52.4259 124.322 51.744C126.028 47.3089 129.44 38.9495 129.44 30.5901C129.44 21.0371 122.787 15.2372 118.18 14.8954C115.281 14.7253 113.062 16.6019 112.721 19.6721C111.526 27.1785 105.556 39.4613 105.556 39.4613C105.386 39.6314 97.1965 49.526 89.3498 55.3259C89.3498 55.8376 89.52 56.3493 89.52 56.8609V113.327C89.52 113.839 89.3498 114.522 89.3498 115.034C99.9263 118.104 109.821 119.469 120.398 119.469H145.987C151.105 119.469 155.198 115.374 155.198 110.258C155.198 107.528 154.004 104.969 152.128 103.434C156.223 102.411 159.123 98.8281 159.123 94.5633C159.123 91.8335 157.928 89.2752 156.053 87.7401C160.147 86.7168 163.048 83.1338 163.048 78.8689C162.705 75.4562 160.828 72.5561 158.098 70.851L158.099 70.8502Z" fill="#616161"/>
<path d="M75.3603 51.7438H72.8018C67.8552 66.5852 55.2307 77.6744 46.531 83.8155V113.328C46.531 116.058 48.7491 118.275 51.4776 118.275H75.5316C78.2614 118.275 80.4783 116.056 80.4783 113.328L80.4771 56.6908C80.3069 53.961 78.0888 51.7429 75.3602 51.7429L75.3603 51.7438ZM63.4178 109.405C60.5178 109.405 58.1297 107.016 58.1297 104.116C58.1297 101.217 60.5179 98.8283 63.4178 98.8283C66.3176 98.8283 68.7059 101.217 68.7059 104.116C68.7071 107.016 66.3188 109.405 63.4178 109.405Z" fill="#616161"/>
<path d="M65.9777 38.9492V19.3315C65.9777 17.2848 64.4426 15.4082 62.2246 15.0667C48.0653 12.8486 40.2186 6.36669 36.2941 1.93064C34.5876 0.0540451 31.6877 0.0540451 29.9824 1.93064C26.059 6.36577 18.3826 12.6784 4.05183 15.0667C2.00507 15.4082 0.298767 17.1134 0.298767 19.3315V38.9492C0.298767 60.6149 23.6698 75.968 30.8351 80.2329C32.2 81.0861 33.735 81.0861 35.0999 80.2329C42.6076 76.1393 65.9774 60.7852 65.9774 38.9492H65.9777ZM49.0886 34.3441L32.3707 51.062C31.5175 51.9152 30.3239 52.4269 29.1291 52.4269C27.9343 52.4269 26.7409 51.9152 25.8875 51.062L17.1876 42.362C15.4811 40.6556 15.4811 37.7556 17.1876 36.0503C18.894 34.3439 21.7939 34.3439 23.4992 36.0503L29.1288 41.6799L42.6051 28.2036C44.3115 26.4972 47.2115 26.4972 48.9168 28.2036C50.9647 29.9077 50.9647 32.6375 49.0881 34.3438L49.0886 34.3441Z" fill="#616161"/>
</svg>
