<svg width="76" height="43" viewBox="0 0 76 43" fill="none" xmlns="http://www.w3.org/2000/svg">
<path d="M51.0293 42.7096C49.7574 42.7556 48.5085 42.6866 47.252 42.6637C46.0414 42.6407 44.8309 42.6024 43.6203 42.5641C42.563 42.5257 41.5057 42.4108 40.4407 42.3419C39.1688 42.2576 37.897 42.1733 36.6174 42.3189C36.2114 42.3648 35.8053 42.3495 35.3916 42.3725C34.3879 42.4338 33.3765 42.4644 32.3728 42.5334C32.051 42.5564 31.7369 42.5717 31.4151 42.5717C27.6838 42.5717 23.9525 42.5794 20.2212 42.5641C19.6236 42.5641 19.0336 42.4721 18.436 42.4185C17.7848 42.3572 17.1335 42.2806 16.4822 42.2346C15.3177 42.158 14.1684 41.9434 13.0115 41.7672C11.7779 41.5757 10.5673 41.2386 9.37977 40.8631C8.36075 40.5413 7.39537 40.074 6.45297 39.5453C5.64082 39.0856 4.85931 38.5723 4.1008 38.0359C3.00516 37.2544 2.17002 36.2584 1.51111 35.0938C1.1127 34.3889 0.852194 33.6381 0.698958 32.8489C0.584031 32.2436 0.645327 31.623 0.61468 31.0177C0.576371 30.3205 0.752592 29.6616 0.844534 28.9797C0.944137 28.2212 1.28125 27.5469 1.58006 26.865C1.94783 26.0299 2.45351 25.2791 3.14307 24.6661C3.91691 23.9842 4.7214 23.3636 5.64081 22.8732C6.62918 22.3446 7.67885 21.9692 8.72085 21.5631C10.031 21.0574 11.3872 20.682 12.7586 20.3908C13.6091 20.2146 14.4672 20.0384 15.3177 19.8468C15.4402 19.8162 15.6471 19.8162 15.6395 19.6859C15.6395 19.5557 15.4402 19.5787 15.3177 19.5557C13.8313 19.2492 12.3372 18.9581 10.8662 18.598C9.65559 18.2992 8.47568 17.9237 7.36472 17.3568C6.55257 16.943 5.85534 16.376 5.18111 15.7784C4.92827 15.5562 4.69842 15.3111 4.4609 15.0735C3.68706 14.2844 3.29631 13.3113 3.12008 12.2387C2.98983 11.4189 3.04347 10.5991 3.16606 9.7869C3.34994 8.584 3.84796 7.50369 4.54518 6.50766C5.15812 5.61889 5.99326 4.96764 6.79008 4.27041C7.32641 3.80304 7.96234 3.54254 8.56762 3.20543C9.18822 2.86064 9.8548 2.60014 10.4984 2.30133C10.9581 2.0868 11.4485 1.95655 11.9311 1.79565C12.9272 1.47386 13.9385 1.23634 14.9499 0.983505C15.3866 0.87624 15.8463 0.830269 16.2984 0.761313C16.7121 0.700018 17.1182 0.654047 17.5319 0.600415C18.0529 0.539121 18.5663 0.462503 19.0873 0.416532C19.976 0.339914 20.8725 0.3629 21.7536 0.301605C22.8339 0.224987 23.9142 0.339914 24.9868 0.332252C25.6381 0.32459 26.297 0.339914 26.9406 0.439517C27.5229 0.523797 28.1052 0.546782 28.6875 0.654048C29.3847 0.784298 30.0896 0.822607 30.7868 0.991167C31.6143 1.19804 32.4571 1.35127 33.2692 1.61177C34.135 1.8876 35.0314 2.0868 35.8666 2.46989C36.4412 2.73806 37.0312 2.99089 37.5828 3.31269C37.9966 3.55021 38.349 3.48891 38.7321 3.29737C39.2684 3.0292 39.7971 2.7687 40.3487 2.53119C41.0766 2.21705 41.8428 2.01785 42.586 1.75735C43.1913 1.54282 43.8195 1.38192 44.4401 1.21336C45.145 1.02181 45.8729 0.914548 46.6008 0.814945C47.4895 0.700018 48.3783 0.569768 49.2747 0.508473C51.7342 0.339914 54.1859 0.424194 56.6454 0.431855C57.5801 0.431855 58.5072 0.592753 59.4419 0.730665C60.5375 0.899225 61.6102 1.15973 62.6905 1.41257C63.472 1.59645 64.2305 1.90292 65.0044 2.13277C65.9698 2.41626 66.8968 2.79169 67.7779 3.28204C68.6974 3.78772 69.5708 4.33937 70.3447 5.05192C71.0955 5.74148 71.7467 6.48467 72.2448 7.37344C72.7045 8.20858 73.0033 9.09734 73.1335 10.0397C73.1872 10.4228 73.2178 10.7983 73.2331 11.1814C73.2868 12.5375 72.8807 13.7327 72.0762 14.8207C71.3637 15.7861 70.4289 16.4986 69.4176 17.1039C69.1571 17.2572 68.8889 17.4027 68.6207 17.5406C67.5864 18.0846 66.4525 18.3605 65.3262 18.6286C63.8781 18.9657 62.43 19.2875 60.9819 19.617C60.9283 19.6323 60.8594 19.6323 60.844 19.7013C60.8287 19.7932 60.913 19.8009 60.9666 19.8239C61.4033 20.0154 61.8784 20.0767 62.3381 20.1763C63.4873 20.4368 64.6519 20.659 65.7859 20.9731C66.6746 21.2183 67.5251 21.5707 68.3909 21.8925C69.0805 22.1454 69.7623 22.4289 70.4442 22.6817C71.1645 22.9499 71.7621 23.3943 72.3367 23.8923C73.1259 24.5665 73.8921 25.2637 74.4054 26.1908C74.6506 26.6429 74.9417 27.0796 75.1103 27.5623C75.3095 28.1369 75.478 28.7269 75.5776 29.3321C75.6772 29.9374 75.7539 30.5427 75.7768 31.148C75.7998 31.8146 75.6849 32.4658 75.5087 33.1017C75.3861 33.5308 75.2865 33.9752 75.1256 34.3966C74.8038 35.2624 74.2675 36.0056 73.6775 36.7104C72.7811 37.7754 71.6088 38.4803 70.4519 39.2082C69.5325 39.7828 68.5365 40.2042 67.5558 40.6486C66.5444 41.116 65.4411 41.3152 64.3685 41.5987C63.2652 41.8898 62.1235 42.0277 60.9973 42.2193C60.5759 42.2882 60.1315 42.2959 59.7024 42.3342C58.8826 42.4032 58.0551 42.4645 57.2353 42.5257C56.9901 42.5411 56.745 42.5641 56.4998 42.5794C54.6839 42.679 52.8528 42.7556 51.0293 42.7096ZM35.6367 40.2425C35.3149 40.2808 35.0468 40.1123 34.7633 40.0203C33.8745 39.7369 32.9781 39.4917 32.12 39.1392C30.5876 38.5186 29.1472 37.7371 27.8294 36.7334C25.8756 35.247 24.2973 33.4542 23.217 31.2399C22.9182 30.6193 22.696 29.9681 22.4355 29.3321C22.2822 28.9491 22.0983 28.566 22.0064 28.1599C21.8455 27.4627 21.7382 26.7501 21.562 26.0606C21.3475 25.2024 21.2939 24.329 21.1713 23.4555C21.087 22.8196 21.0027 22.1837 20.9491 21.5401C20.8954 20.9348 20.8265 20.3219 20.7652 19.7166C20.7116 19.1879 20.6656 18.6593 20.6196 18.1306C20.566 17.6019 20.5124 17.0733 20.4664 16.5446C20.4127 15.993 20.3668 15.4413 20.3131 14.8897C20.2519 14.2844 20.1906 13.6714 20.1293 13.0662C20.0833 12.5758 20.0833 12.0854 20.0067 11.6027C19.8458 10.6144 19.8381 9.61835 19.6925 8.63764C19.6006 8.00937 19.5853 7.37344 19.5087 6.74517C19.4167 6.06327 19.3861 5.36605 19.3018 4.67649C19.2328 4.07887 19.2022 3.47359 19.1486 2.87597C19.1179 2.58482 19.2482 2.44691 19.5393 2.45457C19.6619 2.45457 19.7768 2.49288 19.8917 2.55417C20.497 2.86064 21.1023 3.16712 21.7076 3.47359C22.7113 3.9716 23.715 4.46962 24.7187 4.9753C25.753 5.4963 26.772 6.05561 27.837 6.52298C28.2891 6.72219 28.5113 6.93672 28.5419 7.43473C28.5802 8.05534 28.6875 8.67595 28.7641 9.29655C28.8101 9.67964 28.8177 10.0627 28.8944 10.4382C29.0323 11.0971 29.0399 11.7636 29.1549 12.4226C29.2238 12.798 29.2162 13.1887 29.2851 13.5642C29.423 14.315 29.4766 15.0812 29.5839 15.8397C29.6759 16.4527 29.7448 17.0656 29.8138 17.6786C29.8368 17.9007 29.8138 18.1383 29.9057 18.3528C29.921 18.3988 29.921 18.4677 29.9747 18.4677C30.0513 18.4754 30.0513 18.3988 30.0589 18.3451C30.1585 17.8318 30.1739 17.3108 30.2352 16.7898C30.3194 16.0772 30.3961 15.3647 30.5187 14.6598C30.6796 13.7634 30.9171 12.8746 31.2925 12.0318C31.7062 11.1201 32.0663 10.1777 32.595 9.31954C33.139 8.42311 33.7826 7.59563 34.4492 6.79881C34.7326 6.46169 35.0161 6.12457 35.2996 5.77979C35.3839 5.68018 35.4375 5.57292 35.2843 5.47332C34.7633 5.12853 34.2729 4.74545 33.7213 4.4543C32.4571 3.78006 31.1393 3.22841 29.7601 2.83C28.9097 2.58482 28.0362 2.38561 27.1628 2.25536C26.6265 2.17108 26.1055 2.05616 25.5691 1.97954C24.688 1.84929 23.8069 1.94889 22.9258 1.87227C22.673 1.84929 22.4278 1.92591 22.1673 1.92591C21.0717 1.89526 19.9837 2.00252 18.9187 2.27069C18.3747 2.4086 17.8001 2.49288 17.3097 2.76104C16.6661 3.11348 16.0225 3.47359 15.4786 3.98693C14.835 4.60753 14.2297 5.25112 13.8313 6.0786C13.5171 6.72985 13.3486 7.41175 13.1647 8.10131C13.0344 8.59933 13.0191 9.12033 12.9578 9.62601C12.8506 10.4765 12.9348 11.3039 13.1034 12.1314C13.2643 12.9053 13.5325 13.6561 13.8006 14.3993C14.0841 15.1578 14.5132 15.8321 14.9882 16.4757C15.4862 17.1422 16.1068 17.6862 16.7504 18.2072C17.1488 18.529 17.5779 18.8278 18.0989 18.9044C18.3517 18.9427 18.5739 19.05 18.7808 19.1573C19.2405 19.3948 19.3401 20.0154 19.003 20.4062C18.7885 20.6513 18.5356 20.8275 18.2062 20.9042C17.8077 21.0038 17.417 21.1264 17.0262 21.2413C16.1145 21.5171 15.1797 21.7316 14.3063 22.1377C13.5784 22.4748 12.9425 22.9422 12.4292 23.5398C11.5251 24.5742 11.119 25.846 10.8968 27.1792C10.7436 28.0603 10.6823 28.9644 10.7895 29.8608C10.8508 30.3741 10.8508 30.9028 10.9811 31.4085C11.3948 33.0404 11.9695 34.6111 12.9119 36.0209C13.5784 37.0246 14.314 37.9593 15.3177 38.6412C16.3137 39.3231 17.371 39.8748 18.5433 40.2042C19.2252 40.3958 19.9147 40.5567 20.612 40.6946C21.5314 40.8708 22.4661 40.9627 23.3932 41.047C24.0598 41.1083 24.734 41.0853 25.4082 41.0777C26.1361 41.07 26.8563 41.116 27.5842 41.1007C28.2967 41.0853 29.0016 41.116 29.7142 41.0777C30.9784 41.0087 32.2502 40.9551 33.5144 40.9474C33.7673 40.9474 34.0201 40.9168 34.2729 40.9091C34.3649 40.9014 34.4492 40.8785 34.4798 40.8018C34.633 40.4111 34.9778 40.4034 35.3149 40.3651C35.4299 40.3268 35.5448 40.3651 35.6367 40.2425ZM41.2375 40.1583C41.2298 40.1812 41.2298 40.2042 41.2222 40.2272C41.5363 40.3421 41.8275 40.4877 42.0037 40.7789C42.042 40.8478 42.1416 40.8248 42.2105 40.8402C42.8541 41.0011 43.513 40.9398 44.1643 40.9627C45.3672 41.0087 46.5701 41.0164 47.773 41.0853C48.2174 41.1083 48.6618 41.1007 49.0985 41.139C49.6808 41.1926 50.2631 41.1926 50.8377 41.1619C51.466 41.1236 52.0866 41.024 52.7149 40.9857C53.3431 40.9474 53.9714 40.9091 54.592 40.8172C55.6493 40.6563 56.7066 40.5337 57.7333 40.1966C59.2044 39.7139 60.5605 39.0626 61.7558 38.0589C62.3534 37.5609 62.905 37.0322 63.3264 36.381C63.9241 35.4539 64.3838 34.4655 64.7822 33.4389C64.9584 32.9792 65.0274 32.4888 65.1806 32.0214C65.4258 31.2629 65.5254 30.4814 65.579 29.6922C65.6556 28.5277 65.533 27.3707 65.2802 26.2368C65.2342 26.0222 65.2189 25.7924 65.1346 25.5932C64.6443 24.4363 63.9394 23.4249 62.9204 22.674C62.5296 22.3906 62.1465 22.0841 61.6868 21.9308C60.9973 21.6933 60.2924 21.5095 59.5875 21.3179C58.9056 21.1264 58.1854 21.0497 57.5571 20.682C57.4345 20.613 57.3196 20.5441 57.243 20.4215C56.9289 19.9541 57.128 19.4867 57.5418 19.1649C57.8712 18.9121 58.2773 18.8585 58.6451 18.7052C59.1278 18.4984 59.6105 18.3221 60.0165 17.9544C60.3843 17.6249 60.6831 17.2342 60.9973 16.8664C61.7711 15.9623 62.3994 14.9739 62.7748 13.84C63.0583 12.9972 63.2958 12.1391 63.3494 11.258C63.4184 10.124 63.3724 8.99008 63.1272 7.87146C62.8054 6.41572 62.1082 5.17451 61.0432 4.16315C60.2234 3.38165 59.1891 2.91428 58.1164 2.55417C57.3962 2.31666 56.63 2.23238 55.8868 2.07914C55.0287 1.90292 54.1629 1.87993 53.2972 1.8876C52.7685 1.89526 52.2398 1.91058 51.7035 1.94889C50.9297 2.01019 50.1558 2.10213 49.3896 2.19407C48.6618 2.28601 47.9722 2.53119 47.2673 2.70741C46.8153 2.82234 46.3862 3.00622 45.9342 3.12881C44.9458 3.40463 44.0034 3.81837 43.107 4.30106C42.4404 4.66117 41.8045 5.09023 41.1149 5.41202C40.8544 5.53461 40.8391 5.58824 41.046 5.76446C41.7968 6.42338 42.4098 7.19722 42.9614 8.03235C43.2679 8.49206 43.6739 8.85983 43.9268 9.37317C44.2869 10.124 44.6087 10.8902 44.9535 11.6487C45.62 13.1121 45.9725 14.6598 46.1794 16.2458C46.279 17.0579 46.256 17.8778 46.3173 18.6899C46.3249 18.7589 46.279 18.8661 46.3862 18.8738C46.4782 18.8815 46.4705 18.7665 46.4782 18.6976C46.5318 18.2302 46.5854 17.7552 46.6391 17.2878C46.708 16.6749 46.7846 16.0543 46.8613 15.4413C46.9838 14.4453 47.1218 13.4492 47.2214 12.4532C47.2903 11.7943 47.3669 11.1354 47.4436 10.4841C47.5585 9.46511 47.704 8.44609 47.8113 7.41941C47.842 7.09762 47.9262 6.8601 48.2863 6.71453C49.0219 6.41572 49.7114 5.99432 50.4316 5.64954C51.4353 5.16684 52.3931 4.59987 53.3968 4.12484C54.4158 3.64215 55.4118 3.10582 56.4078 2.58482C56.5917 2.48522 56.7833 2.54651 56.9518 2.61547C57.0897 2.67676 57.1664 2.80701 57.1434 2.98323C57.0438 3.70344 56.9978 4.43131 56.9365 5.15152C56.8216 6.40805 56.6683 7.66459 56.5611 8.92878C56.4921 9.71795 56.4002 10.5071 56.3465 11.2963C56.2776 12.254 56.155 13.2117 56.0631 14.1695C56.0018 14.7594 55.9635 15.357 55.9022 15.9546C55.8256 16.7668 55.7413 17.5789 55.6646 18.3911C55.611 18.9504 55.565 19.5174 55.5114 20.0767C55.4195 21.0421 55.3199 22.0075 55.2279 22.9805C55.1666 23.6318 55.0824 24.283 55.044 24.9343C55.0057 25.5089 54.8218 26.0606 54.7452 26.6199C54.5843 27.7615 54.2625 28.8571 53.8335 29.9221C53.481 30.8109 52.9524 31.6077 52.4773 32.4275C52.1096 33.0558 51.8108 33.7147 51.3051 34.2587C49.8034 35.8753 48.1867 37.3464 46.1794 38.3271C44.8998 38.9477 43.6127 39.5683 42.2259 39.9131C41.8887 39.959 41.5593 40.0586 41.2375 40.1583ZM44.7236 21.2949C44.7083 21.0038 44.7083 20.613 44.6853 20.2223C44.6317 19.3565 44.4478 18.5213 44.2333 17.6939C43.9191 16.4756 43.4441 15.3034 42.8541 14.1848C42.4864 13.4799 42.1493 12.752 41.6972 12.1008C40.7088 10.668 39.6285 9.31187 38.4026 8.07066C38.1651 7.83315 38.1728 7.83315 37.9353 8.08599C37.7974 8.23922 37.6518 8.37713 37.5062 8.53037C36.5638 9.51108 35.698 10.5761 34.9548 11.71C33.9052 13.319 33.0164 15.0276 32.3651 16.8587C32.0587 17.7245 31.8978 18.6056 31.7828 19.5097C31.7216 19.9924 31.7675 20.4751 31.6986 20.9501C31.6373 21.4252 31.6756 21.9155 31.6603 22.3982C31.6449 22.789 31.7752 23.1874 31.8365 23.5781C31.9667 24.4209 32.2119 25.2407 32.5644 26.0146C32.8555 26.6429 33.2079 27.2481 33.568 27.8458C34.112 28.7728 34.656 29.7076 35.4682 30.4584C36.1041 31.0484 36.5025 31.7763 36.5868 32.6574C36.6251 33.0328 36.4106 33.301 36.0428 33.232C35.767 33.1784 35.5295 33.0404 35.3303 32.8336C34.9165 32.4045 34.6637 31.8605 34.3112 31.3932C33.8515 30.7879 33.2769 30.2745 32.8785 29.6156C32.3498 28.7422 31.7675 27.8994 31.4381 26.911C31.3002 26.5049 31.1622 26.1065 31.009 25.7081C30.986 25.6392 30.9707 25.5166 30.8558 25.5549C30.7715 25.5855 30.8098 25.6851 30.8175 25.7541C30.9094 26.5126 31.0013 27.2788 31.0933 28.0373C31.2695 29.6003 31.6603 31.1173 32.1276 32.6191C32.3805 33.4235 32.7176 34.205 33.0854 34.9559C33.6906 36.2048 34.5564 37.2468 35.6444 38.1202C35.8436 38.2811 36.0964 38.3501 36.288 38.511C36.8166 38.9554 37.4449 39.2159 38.0655 39.4993C38.1651 39.5453 38.2571 39.5683 38.372 39.5147C39.1458 39.1392 39.9273 38.8021 40.6322 38.2888C41.3141 37.7908 41.9347 37.2238 42.4098 36.5419C43.2372 35.362 43.7736 34.0288 44.2179 32.665C44.6853 31.2169 45.0071 29.7306 45.2829 28.2365C45.4438 27.3707 45.4975 26.482 45.6124 25.6085C45.62 25.5472 45.6507 25.4629 45.5664 25.4476C45.4821 25.4323 45.4668 25.5242 45.4515 25.5779C45.3366 25.9073 45.2446 26.2521 45.122 26.5816C44.5934 27.9913 43.8042 29.2479 42.8924 30.4431C42.4481 31.0177 41.95 31.5541 41.5746 32.1823C41.2988 32.642 40.9464 33.0481 40.3947 33.2013C40.0882 33.2856 39.8814 33.1554 39.8814 32.8412C39.8814 32.0444 40.1495 31.3549 40.6935 30.7726C41.1915 30.2286 41.6972 29.6922 42.1033 29.0793C43.0917 27.6082 43.8961 26.0606 44.4325 24.3673C44.601 23.831 44.7083 23.287 44.7313 22.7353C44.7696 22.2833 44.7313 21.8389 44.7236 21.2949Z" fill="#7E9BFF"/>
</svg>
