<svg width="207" height="33" viewBox="0 0 207 33" fill="none" xmlns="http://www.w3.org/2000/svg">
<path d="M0.421814 19.2217V0.545654H8.56981C11.1831 0.545654 13.0405 1.06832 14.1418 2.11366C15.0938 3.00966 15.5698 4.22299 15.5698 5.75365C15.5698 6.81765 15.3085 7.67632 14.7858 8.32966C14.3751 8.85232 13.8338 9.23499 13.1618 9.47765L13.1338 9.64566C13.8431 9.83232 14.4965 10.2057 15.0938 10.7657C16.0085 11.6617 16.4658 12.7443 16.4658 14.0137C16.4658 15.5817 15.8778 16.8417 14.7018 17.7937C13.5258 18.7457 11.9298 19.2217 9.91381 19.2217H0.421814ZM6.69381 5.02565V7.71366H7.75781C8.33648 7.71366 8.76581 7.57365 9.04581 7.29365C9.28848 7.05099 9.40981 6.72432 9.40981 6.31365C9.40981 5.90299 9.26981 5.57632 8.98981 5.33366C8.72848 5.12832 8.31781 5.02565 7.75781 5.02565H6.69381ZM6.69381 11.6337V14.7137H8.06581C8.68181 14.7137 9.15781 14.611 9.49381 14.4057C9.92315 14.1257 10.1378 13.7057 10.1378 13.1457C10.1378 12.679 9.96981 12.3057 9.63381 12.0257C9.31648 11.7643 8.82181 11.6337 8.14982 11.6337H6.69381Z" fill="#7E9BFF"/>
<path d="M30.319 16.8977H25.167L24.663 19.2217H17.495L23.963 0.545654H31.467L38.131 19.2217H30.935L30.319 16.8977ZM28.275 8.88966C28.1257 8.25499 28.0044 7.55499 27.911 6.78965H27.659C27.6404 7.46165 27.5377 8.16166 27.351 8.88966L26.427 12.4737H29.143L28.275 8.88966Z" fill="#7E9BFF"/>
<path d="M46.5116 19.2217H40.0156V0.545654H46.5116V6.34166C46.5116 7.20032 46.4649 7.98432 46.3716 8.69366H46.5116C46.7356 8.07766 47.0622 7.37766 47.4916 6.59365L50.7116 0.545654H58.0476L52.2236 9.70166L58.6636 19.2217H50.8236L47.4076 13.2297C47.1649 12.8377 46.8662 12.2403 46.5116 11.4377H46.3716C46.4649 11.979 46.5116 12.567 46.5116 13.2017V19.2217Z" fill="#7E9BFF"/>
<path d="M65.1661 11.1857L58.6701 0.545654H66.3421L67.9381 3.96166C68.1435 4.44699 68.3115 4.94166 68.4421 5.44566H68.6381C68.6941 5.18432 68.8621 4.68966 69.1421 3.96166L70.5981 0.545654H78.2421L71.8581 11.1857V19.2217H65.1661V11.1857Z" fill="#7E9BFF"/>
<path d="M86.4453 19.2217V0.545654H94.5933C97.2066 0.545654 99.0639 1.06832 100.165 2.11366C101.117 3.00966 101.593 4.22299 101.593 5.75365C101.593 6.81765 101.332 7.67632 100.809 8.32966C100.399 8.85232 99.8572 9.23499 99.1852 9.47765L99.1572 9.64566C99.8666 9.83232 100.52 10.2057 101.117 10.7657C102.032 11.6617 102.489 12.7443 102.489 14.0137C102.489 15.5817 101.901 16.8417 100.725 17.7937C99.5492 18.7457 97.9533 19.2217 95.9373 19.2217H86.4453ZM92.7173 5.02565V7.71366H93.7812C94.3599 7.71366 94.7893 7.57365 95.0693 7.29365C95.3119 7.05099 95.4333 6.72432 95.4333 6.31365C95.4333 5.90299 95.2933 5.57632 95.0133 5.33366C94.7519 5.12832 94.3413 5.02565 93.7812 5.02565H92.7173ZM92.7173 11.6337V14.7137H94.0892C94.7052 14.7137 95.1812 14.611 95.5173 14.4057C95.9466 14.1257 96.1613 13.7057 96.1613 13.1457C96.1613 12.679 95.9932 12.3057 95.6572 12.0257C95.3399 11.7643 94.8453 11.6337 94.1733 11.6337H92.7173Z" fill="#7E9BFF"/>
<path d="M118.162 19.2217H105.394V0.545654H117.994V5.66965H112.17V7.40566H117.462V12.3057H112.17V14.0977H118.162V19.2217Z" fill="#7E9BFF"/>
<path d="M127.67 19.2217H121.062V0.545654H129.49C130.685 0.545654 131.74 0.676321 132.654 0.937654C133.588 1.19899 134.437 1.71232 135.202 2.47765C136.378 3.65365 136.966 5.18432 136.966 7.06966C136.966 8.45099 136.621 9.56165 135.93 10.4017C135.314 11.167 134.456 11.6617 133.354 11.8857V12.0537C133.784 12.2777 134.11 12.567 134.334 12.9217L138.534 19.2217H130.722L128.034 13.7617L127.922 13.5657C127.866 13.435 127.82 13.3043 127.782 13.1737L127.67 13.2297V19.2217ZM127.67 5.66965V8.86166H128.454C129.089 8.86166 129.565 8.72166 129.882 8.44166C130.2 8.16166 130.358 7.77899 130.358 7.29365C130.358 6.80832 130.237 6.43499 129.994 6.17366C129.696 5.83766 129.313 5.66965 128.846 5.66965H127.67Z" fill="#7E9BFF"/>
<path d="M153.737 19.2217H140.969V0.545654H153.569V5.66965H147.745V7.40566H153.037V12.3057H147.745V14.0977H153.737V19.2217Z" fill="#7E9BFF"/>
<path d="M163.133 19.2217H156.637V0.545654H163.133V6.34166C163.133 7.20032 163.086 7.98432 162.993 8.69366H163.133C163.357 8.07766 163.683 7.37766 164.113 6.59365L167.333 0.545654H174.669L168.845 9.70166L175.285 19.2217H167.445L164.029 13.2297C163.786 12.8377 163.487 12.2403 163.133 11.4377H162.993C163.086 11.979 163.133 12.567 163.133 13.2017V19.2217Z" fill="#7E9BFF"/>
<path d="M190.131 19.2217H177.363V0.545654H189.963V5.66965H184.139V7.40566H189.431V12.3057H184.139V14.0977H190.131V19.2217Z" fill="#7E9BFF"/>
<path d="M202.534 19.2217H195.87V6.45366L192.062 6.62166V0.545654H206.342V6.62166L202.534 6.45366V19.2217Z" fill="#7E9BFF"/>
<path d="M1.2364 22.5802V25.5634H5.00113V22.5802H5.81572V29.9225H5.00113V26.3339H1.2364V29.9225H0.421814V22.5802H1.2364Z" fill="#353535"/>
<path d="M8.30473 25.3542V28.0181C8.30473 28.4805 8.37811 28.807 8.52489 28.9978C8.70835 29.2327 8.97621 29.3501 9.32847 29.3501C9.68072 29.3501 9.94858 29.2327 10.1321 28.9978C10.2788 28.807 10.3522 28.4805 10.3522 28.0181V25.3542H11.1448V28.1062C11.1448 28.7226 11.0054 29.1813 10.7265 29.4822C10.3669 29.8638 9.90088 30.0546 9.32847 30.0546C8.75605 30.0546 8.29005 29.8638 7.93046 29.4822C7.65159 29.1813 7.51215 28.7226 7.51215 28.1062V25.3542H8.30473Z" fill="#353535"/>
<path d="M15.1717 26.0697L14.5223 26.411C14.3975 26.1028 14.1847 25.9486 13.8838 25.9486C13.7297 25.9486 13.5976 25.9927 13.4875 26.0807C13.3848 26.1688 13.3334 26.2972 13.3334 26.466C13.3334 26.6201 13.3811 26.7375 13.4765 26.8183C13.5792 26.8917 13.7774 26.9907 14.0709 27.1155C14.6507 27.3577 15.0323 27.5925 15.2158 27.82C15.3772 28.0181 15.4579 28.264 15.4579 28.5575C15.4579 29.0199 15.3075 29.3868 15.0066 29.6583C14.7131 29.9225 14.3388 30.0546 13.8838 30.0546C13.7957 30.0546 13.7003 30.0436 13.5976 30.0216C13.4948 30.0069 13.3517 29.9702 13.1683 29.9115C12.9921 29.8455 12.8234 29.7244 12.6619 29.5482C12.5005 29.3721 12.3757 29.152 12.2876 28.8878L12.9701 28.6016C13.1536 29.1006 13.4618 29.3501 13.8948 29.3501C14.137 29.3501 14.3204 29.2767 14.4452 29.1299C14.5773 28.9832 14.6433 28.8144 14.6433 28.6236C14.6433 28.5208 14.625 28.4328 14.5883 28.3594C14.5589 28.2787 14.5039 28.2089 14.4232 28.1502C14.3498 28.0915 14.2764 28.0438 14.203 28.0071C14.137 27.9704 14.0379 27.9227 13.9058 27.864C13.3187 27.6072 12.9481 27.3833 12.794 27.1925C12.6546 27.0164 12.5849 26.7926 12.5849 26.5211C12.5849 26.1248 12.7059 25.8129 12.9481 25.5854C13.1976 25.3579 13.5205 25.2441 13.9168 25.2441C14.4966 25.2441 14.9149 25.5193 15.1717 26.0697Z" fill="#353535"/>
<path d="M17.3025 25.3542V28.0181C17.3025 28.4805 17.3758 28.807 17.5226 28.9978C17.7061 29.2327 17.9739 29.3501 18.3262 29.3501C18.6785 29.3501 18.9463 29.2327 19.1298 28.9978C19.2766 28.807 19.3499 28.4805 19.3499 28.0181V25.3542H20.1425V28.1062C20.1425 28.7226 20.0031 29.1813 19.7242 29.4822C19.3646 29.8638 18.8986 30.0546 18.3262 30.0546C17.7538 30.0546 17.2878 29.8638 16.9282 29.4822C16.6493 29.1813 16.5099 28.7226 16.5099 28.1062V25.3542H17.3025Z" fill="#353535"/>
<path d="M24.1695 26.0697L23.52 26.411C23.3952 26.1028 23.1824 25.9486 22.8815 25.9486C22.7274 25.9486 22.5953 25.9927 22.4852 26.0807C22.3825 26.1688 22.3311 26.2972 22.3311 26.466C22.3311 26.6201 22.3788 26.7375 22.4742 26.8183C22.577 26.8917 22.7751 26.9907 23.0687 27.1155C23.6484 27.3577 24.03 27.5925 24.2135 27.82C24.3749 28.0181 24.4557 28.264 24.4557 28.5575C24.4557 29.0199 24.3052 29.3868 24.0043 29.6583C23.7108 29.9225 23.3365 30.0546 22.8815 30.0546C22.7935 30.0546 22.6981 30.0436 22.5953 30.0216C22.4926 30.0069 22.3495 29.9702 22.166 29.9115C21.9899 29.8455 21.8211 29.7244 21.6596 29.5482C21.4982 29.3721 21.3734 29.152 21.2854 28.8878L21.9679 28.6016C22.1513 29.1006 22.4596 29.3501 22.8925 29.3501C23.1347 29.3501 23.3182 29.2767 23.4429 29.1299C23.575 28.9832 23.6411 28.8144 23.6411 28.6236C23.6411 28.5208 23.6227 28.4328 23.586 28.3594C23.5567 28.2787 23.5016 28.2089 23.4209 28.1502C23.3475 28.0915 23.2741 28.0438 23.2008 28.0071C23.1347 27.9704 23.0356 27.9227 22.9035 27.864C22.3164 27.6072 21.9458 27.3833 21.7917 27.1925C21.6523 27.0164 21.5826 26.7926 21.5826 26.5211C21.5826 26.1248 21.7037 25.8129 21.9458 25.5854C22.1954 25.3579 22.5183 25.2441 22.9145 25.2441C23.4943 25.2441 23.9126 25.5193 24.1695 26.0697Z" fill="#353535"/>
<path d="M25.4966 32.4544L26.9497 29.4932L24.8471 25.3542H25.7498L27.368 28.6236L28.854 25.3542H29.7347L26.3772 32.4544H25.4966Z" fill="#353535"/>
<path d="M34.1528 22.5802V25.7285L37.2791 22.5802H38.3799L34.9454 26.0037L38.49 29.9225H37.3672L34.362 26.5541L34.1528 26.7632V29.9225H33.3382V22.5802H34.1528Z" fill="#353535"/>
<path d="M42.4349 26.0037V25.3542H43.2274V29.9225H42.4349V29.2841C42.0386 29.7978 41.5175 30.0546 40.8717 30.0546C40.2553 30.0546 39.7306 29.8418 39.2976 29.4162C38.8646 28.9905 38.6481 28.3961 38.6481 27.6329C38.6481 26.8843 38.8609 26.3009 39.2866 25.8826C39.7196 25.457 40.248 25.2441 40.8717 25.2441C41.5322 25.2441 42.0533 25.4973 42.4349 26.0037ZM40.9598 25.9486C40.5415 25.9486 40.1856 26.0991 39.892 26.4C39.6058 26.6935 39.4627 27.1045 39.4627 27.6329C39.4627 28.1392 39.5948 28.5539 39.859 28.8768C40.1305 29.1923 40.4975 29.3501 40.9598 29.3501C41.4221 29.3501 41.7891 29.185 42.0606 28.8547C42.3395 28.5245 42.4789 28.1209 42.4789 27.6439C42.4789 27.1008 42.3248 26.6825 42.0166 26.389C41.7083 26.0954 41.3561 25.9486 40.9598 25.9486ZM39.7819 24.2534C39.6719 24.1433 39.6168 24.0149 39.6168 23.8681C39.6168 23.7214 39.6719 23.5929 39.7819 23.4829C39.892 23.3728 40.0205 23.3177 40.1672 23.3177C40.314 23.3177 40.4424 23.3728 40.5525 23.4829C40.6626 23.5929 40.7176 23.7214 40.7176 23.8681C40.7176 24.0149 40.6626 24.1433 40.5525 24.2534C40.4424 24.3635 40.314 24.4185 40.1672 24.4185C40.0205 24.4185 39.892 24.3635 39.7819 24.2534ZM41.6973 24.2534C41.5872 24.1433 41.5322 24.0149 41.5322 23.8681C41.5322 23.7214 41.5872 23.5929 41.6973 23.4829C41.8074 23.3728 41.9358 23.3177 42.0826 23.3177C42.2294 23.3177 42.3578 23.3728 42.4679 23.4829C42.578 23.5929 42.633 23.7214 42.633 23.8681C42.633 24.0149 42.578 24.1433 42.4679 24.2534C42.3578 24.3635 42.2294 24.4185 42.0826 24.4185C41.9358 24.4185 41.8074 24.3635 41.6973 24.2534Z" fill="#353535"/>
<path d="M44.7286 29.9225V25.3542H45.5211V25.8496C45.778 25.4459 46.1229 25.2441 46.5559 25.2441C46.7761 25.2441 47.0109 25.3065 47.2604 25.4313L46.8861 26.1468C46.7394 26.044 46.5852 25.9927 46.4238 25.9927C46.1449 25.9927 45.9321 26.0881 45.7853 26.2789C45.6092 26.5137 45.5211 26.9247 45.5211 27.5118V29.9225H44.7286Z" fill="#353535"/>
<path d="M47.9858 29.9225V21.8977H48.7784V25.8826C49.1013 25.457 49.5379 25.2441 50.0883 25.2441C50.6754 25.2441 51.1121 25.4533 51.3983 25.8716C51.5744 26.1284 51.6625 26.5357 51.6625 27.0935V29.9225H50.8699V27.1155C50.8699 26.7412 50.8002 26.4623 50.6607 26.2789C50.492 26.0587 50.2424 25.9486 49.9122 25.9486C49.5746 25.9486 49.3068 26.0661 49.1086 26.3009C48.8885 26.5577 48.7784 26.9687 48.7784 27.5338V29.9225H47.9858Z" fill="#353535"/>
<path d="M56.6571 26.0037V25.3542H57.4497V29.9225H56.6571V29.2841C56.2608 29.7978 55.7398 30.0546 55.094 30.0546C54.4775 30.0546 53.9528 29.8418 53.5198 29.4162C53.0868 28.9905 52.8703 28.3961 52.8703 27.6329C52.8703 26.8843 53.0832 26.3009 53.5088 25.8826C53.9418 25.457 54.4702 25.2441 55.094 25.2441C55.7544 25.2441 56.2755 25.4973 56.6571 26.0037ZM55.182 25.9486C54.7637 25.9486 54.4078 26.0991 54.1142 26.4C53.828 26.6935 53.6849 27.1045 53.6849 27.6329C53.6849 28.1392 53.817 28.5539 54.0812 28.8768C54.3527 29.1923 54.7197 29.3501 55.182 29.3501C55.6443 29.3501 56.0113 29.185 56.2828 28.8547C56.5617 28.5245 56.7011 28.1209 56.7011 27.6439C56.7011 27.1008 56.547 26.6825 56.2388 26.389C55.9306 26.0954 55.5783 25.9486 55.182 25.9486Z" fill="#353535"/>
<path d="M58.9508 29.9225V25.3542H59.7434V25.8826C60.0663 25.457 60.5029 25.2441 61.0533 25.2441C61.6404 25.2441 62.077 25.4533 62.3633 25.8716C62.5394 26.1284 62.6274 26.5357 62.6274 27.0935V29.9225H61.8349V27.1155C61.8349 26.7412 61.7652 26.4623 61.6257 26.2789C61.4569 26.0587 61.2074 25.9486 60.8772 25.9486C60.5396 25.9486 60.2717 26.0661 60.0736 26.3009C59.8534 26.5577 59.7434 26.9687 59.7434 27.5338V29.9225H58.9508Z" fill="#353535"/>
<path d="M67.6221 26.0037V25.3542H68.4146V29.9225H67.6221V29.2841C67.2258 29.7978 66.7047 30.0546 66.0589 30.0546C65.4425 30.0546 64.9178 29.8418 64.4848 29.4162C64.0518 28.9905 63.8353 28.3961 63.8353 27.6329C63.8353 26.8843 64.0481 26.3009 64.4738 25.8826C64.9068 25.457 65.4351 25.2441 66.0589 25.2441C66.7194 25.2441 67.2404 25.4973 67.6221 26.0037ZM66.147 25.9486C65.7287 25.9486 65.3728 26.0991 65.0792 26.4C64.793 26.6935 64.6499 27.1045 64.6499 27.6329C64.6499 28.1392 64.782 28.5539 65.0462 28.8768C65.3177 29.1923 65.6847 29.3501 66.147 29.3501C66.6093 29.3501 66.9763 29.185 67.2478 28.8547C67.5267 28.5245 67.6661 28.1209 67.6661 27.6439C67.6661 27.1008 67.512 26.6825 67.2038 26.389C66.8955 26.0954 66.5433 25.9486 66.147 25.9486Z" fill="#353535"/>
<path d="M72.4476 26.0697L71.7981 26.411C71.6734 26.1028 71.4605 25.9486 71.1597 25.9486C71.0055 25.9486 70.8735 25.9927 70.7634 26.0807C70.6606 26.1688 70.6093 26.2972 70.6093 26.466C70.6093 26.6201 70.657 26.7375 70.7524 26.8183C70.8551 26.8917 71.0532 26.9907 71.3468 27.1155C71.9266 27.3577 72.3082 27.5925 72.4916 27.82C72.6531 28.0181 72.7338 28.264 72.7338 28.5575C72.7338 29.0199 72.5834 29.3868 72.2825 29.6583C71.9889 29.9225 71.6147 30.0546 71.1597 30.0546C71.0716 30.0546 70.9762 30.0436 70.8735 30.0216C70.7707 30.0069 70.6276 29.9702 70.4441 29.9115C70.268 29.8455 70.0992 29.7244 69.9378 29.5482C69.7763 29.3721 69.6516 29.152 69.5635 28.8878L70.246 28.6016C70.4295 29.1006 70.7377 29.3501 71.1707 29.3501C71.4128 29.3501 71.5963 29.2767 71.7211 29.1299C71.8532 28.9832 71.9192 28.8144 71.9192 28.6236C71.9192 28.5208 71.9009 28.4328 71.8642 28.3594C71.8348 28.2787 71.7798 28.2089 71.6991 28.1502C71.6257 28.0915 71.5523 28.0438 71.4789 28.0071C71.4128 27.9704 71.3138 27.9227 71.1817 27.864C70.5946 27.6072 70.224 27.3833 70.0699 27.1925C69.9304 27.0164 69.8607 26.7926 69.8607 26.5211C69.8607 26.1248 69.9818 25.8129 70.224 25.5854C70.4735 25.3579 70.7964 25.2441 71.1927 25.2441C71.7724 25.2441 72.1907 25.5193 72.4476 26.0697Z" fill="#353535"/>
<path d="M73.7747 32.4544L75.2278 29.4932L73.1253 25.3542H74.0279L75.6461 28.6236L77.1322 25.3542H78.0128L74.6554 32.4544H73.7747Z" fill="#353535"/>
</svg>
