<svg width="119" height="119" viewBox="0 0 119 119" fill="none" xmlns="http://www.w3.org/2000/svg">
<path d="M43.4751 16.2233C43.4751 20.5583 39.9601 24.0733 35.6251 24.0733C31.2901 24.0733 27.7751 20.5583 27.7751 16.2233C27.7751 11.8883 31.2901 8.37329 35.6251 8.37329C39.9601 8.37329 43.4751 11.8883 43.4751 16.2233Z" fill="#616161"/>
<path d="M33.6625 27.9983H37.5875V31.9233H33.6625V27.9983Z" fill="#616161"/>
<path d="M47.4006 14.2607H51.3256V18.1857H47.4006V14.2607Z" fill="#616161"/>
<path d="M19.9251 14.2607H23.8501V18.1857H19.9251V14.2607Z" fill="#616161"/>
<path d="M33.6625 0.523193H37.5875V4.4482H33.6625V0.523193Z" fill="#616161"/>
<path d="M23.1346 25.9372L25.911 23.1626L28.6857 25.939L25.9092 28.7137L23.1346 25.9372Z" fill="#616161"/>
<path d="M42.5624 25.9393L45.3371 23.1628L48.1135 25.9375L45.3389 28.7139L42.5624 25.9393Z" fill="#616161"/>
<path d="M23.1346 6.50959L25.9092 3.73315L28.6857 6.5078L25.911 9.28423L23.1346 6.50959Z" fill="#616161"/>
<path d="M42.5624 6.50902L45.3389 3.73438L48.1135 6.51081L45.3371 9.28546L42.5624 6.50902Z" fill="#616161"/>
<path d="M111.183 24.0732C110.152 24.0785 109.135 24.3186 108.212 24.7759C108.131 22.3868 106.809 20.213 104.726 19.0409C102.643 17.8695 100.098 17.8695 98.0149 19.0409C95.9315 20.2131 94.6103 22.3868 94.5288 24.7759C93.6054 24.3185 92.5891 24.0785 91.5579 24.0732C89.104 24.0732 86.8365 25.3821 85.6092 27.5075C84.3826 29.633 84.3826 32.2507 85.6092 34.3763C86.8367 36.5017 89.104 37.8105 91.5579 37.8105H111.183C113.637 37.8105 115.904 36.5016 117.132 34.3763C118.358 32.2508 118.358 29.6331 117.132 27.5075C115.904 25.382 113.637 24.0732 111.183 24.0732Z" fill="#616161"/>
<path d="M110.2 105.065C113.583 103.525 116.087 98.1175 116.087 91.665C116.087 84.0112 108.237 74.1182 108.237 74.1182C108.237 74.1182 100.387 84.0148 100.387 91.665C100.387 98.1177 102.891 103.524 106.275 105.065V114.349H88.6123V73.1369L72.9122 61.3619V114.349H68.9872V47.6244H65.0622V41.7369H61.1372V35.8494H57.2122V41.7369H53.2872V47.6244H49.3622V114.349H45.4372V61.3619L29.7372 73.1369V114.349H12.0746V105.065C15.4582 103.525 17.9621 98.1175 17.9621 91.665C17.9621 84.0112 10.1121 74.1182 10.1121 74.1182C10.1121 74.1182 2.26212 84.0148 2.26212 91.665C2.26212 98.1177 4.76605 103.524 8.14963 105.065V114.349H0.299622V118.274H118.05V114.349H110.2V105.065ZM57.2122 106.499H53.2872V102.574H57.2122V106.499ZM57.2122 94.7243H53.2872V90.7993H57.2122V94.7243ZM57.2122 82.9493H53.2872V79.0243H57.2122V82.9493ZM57.2122 71.1743H53.2872V67.2493H57.2122V71.1743ZM57.2122 59.3993H53.2872V55.4743H57.2122V59.3993ZM65.0622 106.499H61.1372V102.574H65.0622V106.499ZM65.0622 94.7243H61.1372V90.7993H65.0622V94.7243ZM65.0622 82.9493H61.1372V79.0243H65.0622V82.9493ZM65.0622 71.1743H61.1372V67.2493H65.0622V71.1743ZM65.0622 59.3993H61.1372V55.4743H65.0622V59.3993Z" fill="#616161"/>
<path d="M3.24252 59.3982H22.8675C25.3215 59.3982 27.589 58.0893 28.8163 55.9639C30.0429 53.8384 30.0429 51.2207 28.8163 49.0952C27.5888 46.9697 25.3215 45.6609 22.8675 45.6609C21.8364 45.6661 20.8201 45.9062 19.8967 46.3635C19.8152 43.9744 18.494 41.8007 16.4106 40.6285C14.3272 39.4572 11.7829 39.4572 9.69949 40.6285C7.61608 41.8008 6.29483 43.9744 6.21341 46.3635C4.35341 45.441 2.17178 45.4261 0.298767 46.3224V58.737C1.2187 59.1742 2.22446 59.3994 3.24252 59.3985V59.3982Z" fill="#616161"/>
</svg>
