<svg width="101" height="113" viewBox="0 0 101 113" fill="none" xmlns="http://www.w3.org/2000/svg">
<path d="M97.9798 88.3193L95.3608 88.0434C94.6714 86.3897 94.5339 85.9763 93.8446 84.3218L95.4983 82.2547C96.1876 81.2895 96.1876 80.0492 95.3608 79.2225L92.7418 76.6035C91.915 75.7767 90.5363 75.7767 89.7096 76.466L87.6425 78.2581C85.9889 77.5688 85.5755 77.4313 83.9209 76.7419L83.645 74.1229C83.5075 73.0202 82.5422 72.0559 81.4395 72.0559H77.8562C76.7535 72.0559 75.6507 72.8827 75.6507 74.1229L75.3748 76.7419C73.7212 77.4313 73.3078 77.5688 71.6532 78.2581L69.5862 76.6044C68.6209 75.9151 67.3807 75.9151 66.5539 76.7419L63.9349 79.3609C63.1081 80.1877 63.1081 81.5664 63.7975 82.3931L65.4511 84.4602C64.7618 86.1138 64.6243 86.5272 63.9349 88.1818L61.3169 88.3193C60.2142 88.4568 59.2499 89.422 59.2499 90.5248V94.108C59.2499 95.2108 60.0767 96.3135 61.3169 96.3135L63.9359 96.5894C64.6253 98.2431 64.7628 98.6565 65.4521 100.311L63.7984 102.378C63.1091 103.343 63.1091 104.584 63.9359 105.41L66.5549 108.029C67.3817 108.856 68.7604 108.856 69.5871 108.167L71.6542 106.513C73.3078 107.202 73.7212 107.34 75.3758 108.029L75.6517 110.648C75.7892 111.751 76.7545 112.715 77.8572 112.715H81.4405C82.5432 112.715 83.646 111.889 83.646 110.648L83.9219 108.029C85.5755 107.34 85.9889 107.202 87.6435 106.513L89.7105 108.167C90.6758 108.856 91.916 108.856 92.7428 108.029L95.3617 105.41C96.1886 104.583 96.1886 103.205 95.4992 102.378L93.8456 100.311C94.5349 98.6574 94.6724 98.244 95.3617 96.5894L97.9807 96.3135C99.0835 96.176 100.048 95.2108 100.048 94.108V90.5248C100.048 89.422 99.0825 88.4568 97.9798 88.3193L97.9798 88.3193ZM79.6486 100.447C75.2376 100.447 71.6545 96.8642 71.6545 92.4534C71.6545 88.0427 75.2378 84.4594 79.6486 84.4594C84.0593 84.4594 87.6426 88.0427 87.6426 92.4534C87.6426 96.8642 84.0593 100.447 79.6486 100.447Z" fill="#616161"/>
<path d="M55.1149 94.246V90.6628C55.1149 87.6305 57.182 85.0115 60.0767 84.4607C58.4231 81.9803 58.8365 78.6719 60.9036 76.4667L63.5226 73.8477C64.7628 72.6074 66.2789 71.9181 68.0709 71.9181C69.3111 71.9181 70.5513 72.3315 71.5166 72.8834C71.93 70.8164 73.3087 69.1618 75.2382 68.4724V51.9332C75.2382 46.5579 71.7925 42.0096 66.968 40.3559V26.7106C66.968 12.2384 54.0119 0.523193 38.024 0.523193C28.1004 0.523193 19.2794 5.07153 14.0416 12.1005C10.8718 16.2356 9.07981 21.3351 9.07981 26.8487V40.4939C4.25533 42.1476 0.948181 46.696 0.948181 52.0713V71.7803C0.948181 92.317 17.6259 108.994 38.1619 108.994C46.1559 108.994 53.4608 106.514 59.5255 102.24C59.663 101.689 59.9389 101.137 60.2149 100.724C57.321 99.8971 55.1155 97.2783 55.1155 94.246L55.1149 94.246ZM19.693 26.7101C19.693 18.165 27.9632 11.1352 38.0242 11.1352C48.0854 11.1352 56.3554 18.1642 56.3554 26.7101V39.6662H19.693V26.7101ZM38.0242 85.5629C31.8222 85.5629 26.7218 80.4634 26.7218 74.2604C26.7218 68.0584 31.8212 62.958 38.0242 62.958C44.2262 62.958 49.3266 68.0574 49.3266 74.2604C49.3257 80.4625 44.3638 85.5629 38.0242 85.5629Z" fill="#616161"/>
</svg>
