<svg width="17" height="17" viewBox="0 0 17 17" fill="none" xmlns="http://www.w3.org/2000/svg">
<path d="M11.9635 0.532471H5.45275C2.75088 0.532471 0.555603 2.67548 0.555603 5.31302V11.6688C0.555603 14.3063 2.75088 16.4493 5.45275 16.4493H5.64038V10.8812H3.55769V8.555H5.64038V6.79664C5.64038 4.78185 6.85998 3.68287 8.73628 3.68287C9.63691 3.68287 10.5751 3.84772 10.5751 3.84772V5.82588H9.54309C8.52989 5.82588 8.21092 6.44863 8.21092 7.07138V8.57332H10.4812L10.1247 10.8995H8.21092V16.4676H11.9635C14.6654 16.4676 16.8607 14.3246 16.8607 11.6871V5.31302C16.8419 2.67548 14.6654 0.532471 11.9635 0.532471Z" fill="white"/>
</svg>
