<svg width="18" height="17" viewBox="0 0 18 17" fill="none" xmlns="http://www.w3.org/2000/svg">
<path d="M13.3872 3.35303C12.8806 3.35303 12.4303 3.79262 12.4303 4.28716C12.4303 4.7817 12.8806 5.22129 13.3872 5.22129C13.8938 5.22129 14.3441 4.7817 14.3441 4.28716C14.3441 3.79262 13.8938 3.35303 13.3872 3.35303Z" fill="white"/>
<path d="M9.12809 4.56201C6.87653 4.56201 5.07529 6.32038 5.07529 8.51833C5.07529 10.7163 6.87653 12.4746 9.12809 12.4746C11.3796 12.4746 13.1809 10.7163 13.1809 8.51833C13.1058 6.30206 11.3234 4.56201 9.12809 4.56201ZM9.12809 11.0277C7.72087 11.0277 6.5388 9.87373 6.5388 8.50001C6.5388 7.12629 7.72087 5.99068 9.12809 5.99068C10.5353 5.99068 11.7174 7.14461 11.7174 8.51833C11.7174 9.87373 10.5353 11.0277 9.12809 11.0277Z" fill="white"/>
<path d="M12.3366 16.4493H5.82583C3.12394 16.4493 0.92865 14.3063 0.92865 11.6688V5.33133C0.92865 2.69379 3.12394 0.550781 5.82583 0.550781H12.3366C15.0385 0.550781 17.2338 2.69379 17.2338 5.33133V11.6871C17.2151 14.3246 15.0198 16.4493 12.3366 16.4493ZM5.75078 2.0344C3.89323 2.0344 2.37341 3.51802 2.37341 5.33133V11.6871C2.37341 13.5004 3.89323 14.984 5.75078 14.984H12.2616C14.1191 14.984 15.639 13.5004 15.639 11.6871V5.33133C15.639 3.51802 14.1191 2.0344 12.2616 2.0344H5.75078Z" fill="white"/>
</svg>
