<svg width="18" height="17" viewBox="0 0 18 17" fill="none" xmlns="http://www.w3.org/2000/svg">
<path d="M1.20424 5.71582H4.73169V16.7605H1.20424V5.71582ZM2.96796 0.239258C4.09374 0.239258 5.01313 1.13676 5.01313 2.23573C5.01313 3.33471 4.09374 4.2322 2.96796 4.2322C1.84218 4.2322 0.922791 3.33471 0.922791 2.23573C0.922791 1.11844 1.84218 0.239258 2.96796 0.239258ZM6.92696 16.7605H10.4356V11.3023C10.4356 9.8553 10.7171 8.46326 12.5371 8.46326C14.3383 8.46326 14.3571 10.1117 14.3571 11.3939V16.7605H17.8658V10.6978C17.8658 7.73061 17.2091 5.44108 13.6441 5.44108C11.9367 5.44108 10.7921 6.35689 10.3043 7.21776H10.2668V5.71582H6.88943V16.7605H6.92696Z" fill="white"/>
</svg>
